# xmcd CD database file
#
# Track frame offsets:
#	150
#	24547
#	40630
#	61752
#	94175
#	120052
#	144037
#	165740
#	191675
#	210555
#
# Disc length: 3008 seconds
#
# Revision: 2
# Processed by: cddbd v1.5.2PL0 Copyright (c) Steve Scherf et al.
# Submitted via: CDex 1.51
#
DISCID=740bbe0a
DTITLE=Fleetwood Mac, Otis Spann, Willie Dixon, Shakey Horton, J.T. Brown, Guitar Buddy, Honey Boy Edwards, S.P. Leary - Blues Jam At Chess, Chicago Vol. 2
DYEAR=1969
DGENRE=Blues
TTITLE0=World's In A Tangle
TTITLE1=Talk With You
TTITLE2=Like It This Way
TTITLE3=Someday Soon Baby
TTITLE4=Hungry Country Girl
TTITLE5=Black Jack Blues
TTITLE6=Everyday I Have The Blues
TTITLE7=Rockin' Boogie
TTITLE8=Sugar Mama
TTITLE9=Homework
EXTD=YEAR: 1969
EXTT0=
EXTT1=
EXTT2=
EXTT3=
EXTT4=
EXTT5=
EXTT6=
EXTT7=
EXTT8=
EXTT9=
PLAYORDER=
